<svg width="122" height="36" viewBox="0 0 122 36" fill="none" xmlns="http://www.w3.org/2000/svg">
<path d="M97.4572 10.9302L98.5438 4.38472H101.165C101.646 4.38472 102.036 4.4561 102.334 4.59885C102.635 4.74161 102.845 4.93976 102.964 5.19331C103.083 5.44474 103.115 5.73451 103.06 6.06263C103.015 6.31831 102.924 6.54204 102.788 6.7338C102.654 6.92556 102.488 7.08323 102.29 7.20681C102.091 7.33039 101.876 7.41775 101.644 7.46888L101.631 7.5328C101.878 7.54346 102.101 7.61377 102.299 7.74374C102.497 7.87158 102.645 8.05269 102.743 8.28706C102.841 8.52144 102.864 8.79949 102.811 9.12123C102.753 9.46853 102.616 9.77854 102.398 10.0513C102.181 10.3219 101.891 10.536 101.529 10.6937C101.169 10.8513 100.744 10.9302 100.254 10.9302H97.4572ZM99.0328 9.79878H100.161C100.545 9.79878 100.837 9.72421 101.04 9.57506C101.242 9.42591 101.364 9.22883 101.404 8.9838C101.432 8.80269 101.414 8.64289 101.35 8.50439C101.288 8.3659 101.183 8.25724 101.034 8.1784C100.886 8.09956 100.7 8.06015 100.474 8.06015H99.3172L99.0328 9.79878ZM99.4771 7.12371H100.503C100.69 7.12371 100.864 7.09069 101.024 7.02464C101.186 6.95645 101.319 6.86057 101.423 6.73699C101.53 6.61128 101.597 6.4632 101.625 6.29275C101.663 6.05411 101.61 5.86341 101.465 5.72066C101.322 5.57577 101.098 5.50333 100.794 5.50333H99.7455L99.4771 7.12371ZM103.407 10.9302L104.494 4.38472H108.905L108.713 5.5257H105.686L105.43 7.08536H108.23L108.038 8.22634H105.239L104.983 9.7892H108.022L107.831 10.9302H103.407ZM109.564 5.5257L109.755 4.38472H115.131L114.939 5.5257H112.936L112.041 10.9302H110.673L111.568 5.5257H109.564ZM115.258 10.9302H113.775L117.121 4.38472H118.905L120.075 10.9302H118.592L117.796 5.88046H117.745L115.258 10.9302ZM115.597 8.35738H119.1L118.914 9.43763H115.412L115.597 8.35738Z" fill="#FFCC29"/>
<path d="M102.427 14.3999L102.097 15.9774C101.912 16.8769 101.728 17.7697 101.537 18.6625C101.425 19.2062 101.312 19.7567 101.194 20.3004C100.917 21.6363 100.633 23.0191 100.323 24.3751C99.9543 25.9928 99.0708 27.2817 97.7654 28.1074C96.7699 28.7384 95.5502 29.074 94.2711 29.074C94.0338 29.074 93.7899 29.0606 93.5525 29.0404C93.0778 28.9935 92.5965 28.8928 92.135 28.7317C90.045 28.0268 89.0363 26.3419 89.4319 24.2274C89.867 21.9115 89.9198 21.6631 90.1703 20.475C90.2362 20.1527 90.322 19.75 90.434 19.2264H93.869C93.7833 19.6224 93.7107 19.9581 93.6382 20.3071C93.5525 20.7099 93.4668 21.1194 93.3547 21.6295C93.1372 22.6566 93.124 22.7506 93.0976 22.8848C93.0712 23.0124 93.0383 23.1802 92.8471 24.1133C92.7416 24.6302 92.8141 25.0665 93.0514 25.3887C93.2954 25.7176 93.7041 25.9056 94.2382 25.9324C95.7414 26.0197 96.7435 25.241 97.06 23.7441L97.1918 23.1265C97.7522 20.4615 98.306 17.7966 98.8664 15.1316C98.8664 15.1249 98.8664 15.1115 98.8664 15.1047C98.9521 14.7221 99.2752 14.4335 99.6708 14.4133C99.6708 14.4133 99.6971 14.4133 99.7103 14.4133H102.42L102.427 14.3999Z" fill="white"/>
<path d="M56.7368 19.4342C56.7104 19.5484 56.6906 19.6558 56.6643 19.7699H61.6815L61.042 22.8443H56.0182L55.438 25.6838H61.4639L60.8046 28.7985H51.3438L54.2051 15.1314C54.2051 15.1314 54.2051 15.1246 54.2051 15.1179C54.2051 15.1179 54.2051 15.1112 54.2051 15.1045C54.2908 14.7219 54.6139 14.4332 55.0094 14.4131C55.0094 14.4131 55.0358 14.4131 55.049 14.4131H63.8044L63.1517 17.5144H61.4046C61.042 17.5144 60.686 17.5144 60.3234 17.5144C59.3015 17.5144 58.2466 17.5144 57.2049 17.5144C57.1587 17.5144 57.1324 17.5144 57.1126 17.5144C57.1126 17.5278 57.0994 17.5547 57.0928 17.5882C56.9807 18.1991 56.8489 18.8032 56.717 19.4342H56.7368Z" fill="white"/>
<path d="M93.8819 14.386C90.2096 14.386 84.065 14.3726 82.4563 14.4129C81.8564 14.4263 81.1971 14.5673 80.4916 14.8291C78.85 15.4399 77.8479 16.8832 77.8215 18.6956C77.7951 20.4544 78.6456 21.7164 80.3598 22.4413C80.8674 22.6561 81.3817 22.8575 81.8827 23.0522C82.3179 23.22 82.7662 23.3945 83.2013 23.5758C83.5244 23.71 83.7683 23.851 83.9529 24.0121C84.1837 24.2135 84.3024 24.482 84.276 24.7505C84.2496 24.9855 84.1112 25.1936 83.8804 25.3211C83.5046 25.5292 83.0101 25.6635 82.5223 25.6836C81.619 25.7239 80.696 25.7172 79.806 25.7104C79.4433 25.7104 78.672 25.7104 78.3028 25.7104H75.7513L77.5973 28.8453C79.6279 28.8453 82.1333 28.8319 83.0233 28.8117C83.6431 28.7983 84.3221 28.6506 84.988 28.3888C86.3066 27.8652 87.2626 26.7241 87.5395 25.3278C87.8098 23.992 87.4076 22.6293 86.4648 21.6828C85.8253 21.0451 85.0342 20.7229 84.2694 20.4141L83.8672 20.253C83.142 19.9576 82.3904 19.6555 81.6718 19.3199C81.4278 19.2058 81.1443 18.9641 81.1905 18.4741C81.2366 17.9908 81.5597 17.7961 81.8234 17.7223C82.2058 17.6081 82.6212 17.5477 83.0167 17.541C83.9529 17.5276 96.229 17.5276 96.229 17.5276L96.8685 14.3994C96.8685 14.3994 94.8511 14.3994 93.8819 14.3994V14.386ZM75.2964 15.7756C74.6569 15.017 73.7338 14.5404 72.6328 14.4599C71.1428 14.3524 69.6264 14.3659 68.1562 14.3726C67.6617 14.3726 66.7387 14.3726 66.5607 14.3726C66.1585 14.3927 65.8289 14.6881 65.7498 15.0774L62.8818 28.7916H66.3102L67.5035 23.0723L67.7145 23.4281C68.743 25.16 69.7121 26.7979 70.7077 28.4694C70.8066 28.6305 71.0307 28.805 71.2615 28.8117C71.2879 28.8117 71.3208 28.8117 71.3472 28.8117L71.7494 28.8185C71.7823 28.8185 73.0943 28.8185 74.8217 28.8185L71.9603 23.9651L71.723 23.5691C71.7691 23.5489 71.8153 23.5355 71.8614 23.5154L71.9603 23.4751C73.2394 22.9515 74.1756 22.3138 74.9008 21.468C75.626 20.6222 76.0414 19.6421 76.1271 18.5412C76.2062 17.4873 75.9095 16.5005 75.2898 15.7621L75.2964 15.7756ZM72.7976 18.7896C72.7449 19.0245 72.6196 19.2863 72.4548 19.5213C72.1252 19.9845 71.6307 20.3335 70.8923 20.6087C70.2132 20.8638 69.5144 21.1189 68.8419 21.3673C68.4924 21.4948 68.143 21.6224 67.8002 21.7499C67.8002 21.7499 67.7936 21.7499 67.787 21.7499C68.0771 20.3671 68.3672 18.9641 68.6639 17.5813C68.6639 17.5679 68.6836 17.541 68.7034 17.5209C68.8353 17.5209 68.9671 17.5209 69.099 17.5209C70.0022 17.5074 70.945 17.494 71.8549 17.5544C72.2372 17.5813 72.5207 17.7155 72.6856 17.9438C72.8438 18.1586 72.8834 18.4472 72.8042 18.7829L72.7976 18.7896Z" fill="white"/>
<path d="M114.34 14.4066C113.734 14.4066 113.134 14.4066 112.541 14.4066C110.912 14.4066 109.376 14.3932 107.8 14.4268C107.134 14.4402 106.475 14.6684 106.04 14.8362C104.405 15.4605 103.409 16.9172 103.39 18.7162C103.37 20.4548 104.214 21.7101 105.901 22.4284C106.429 22.6566 106.969 22.8647 107.497 23.0661C107.86 23.207 108.235 23.3547 108.598 23.5024C108.888 23.6232 109.152 23.7306 109.369 23.885C109.692 24.1133 109.864 24.4221 109.837 24.7308C109.811 25.0262 109.593 25.288 109.251 25.4357C108.822 25.6236 108.334 25.6706 107.998 25.6773C106.943 25.6975 105.875 25.6975 104.833 25.6908C104.135 25.6908 102.058 25.6908 102.058 25.6908L101.418 28.8055C101.418 28.8055 103.179 28.8189 103.699 28.8189C104.247 28.8189 104.807 28.8189 105.361 28.8189C106.356 28.8189 107.365 28.8189 108.361 28.7988C108.914 28.7921 109.495 28.7048 110.088 28.537C111.855 28.0402 113.035 26.6306 113.16 24.845C113.299 22.952 112.422 21.5289 110.635 20.73C110.134 20.5085 109.613 20.3004 109.112 20.1058C108.776 19.9782 108.433 19.8372 108.097 19.703H108.084C107.767 19.5687 107.444 19.4278 107.174 19.2465C106.877 19.0384 106.719 18.7363 106.745 18.4343C106.772 18.1389 106.976 17.8905 107.293 17.7496C107.629 17.6086 108.057 17.5281 108.552 17.5213C109.574 17.5012 110.609 17.5012 111.618 17.5079C112.224 17.5079 112.857 17.5079 113.477 17.5079C113.477 17.5079 114.064 17.4945 114.156 17.1119C114.301 16.5211 114.426 15.9103 114.551 15.3196C114.584 15.145 114.624 14.9772 114.657 14.8027L114.743 14.3999H114.34V14.4066Z" fill="white"/>
<path d="M51.9776 15.0177C52.004 14.9707 52.0238 14.9237 52.0502 14.87L52.3007 14.3867H51.7601C51.4964 14.3867 51.2392 14.3867 50.9821 14.3867C50.336 14.3867 49.7294 14.3867 49.1163 14.3733C48.7009 14.3665 48.4372 14.5209 48.2262 14.8901C46.8945 17.2463 45.5363 19.6361 44.2177 21.9453L43.598 23.0394L42.286 14.4001H38.9434L41.185 29.0675H44.0133C44.0133 29.0675 44.1782 28.7587 44.2837 28.5775C46.2286 25.1405 48.2131 21.6566 50.1382 18.2868L51.8458 15.2795C51.8919 15.1989 51.9315 15.1117 51.9842 15.0177H51.9776Z" fill="white"/>
<path d="M33.6991 8.25781H15.4821H15.3712L15.4299 8.34939L21.1847 17.5661L19.5535 20.1369L12.161 8.28398L12.1414 8.25781H12.1088H5.36873H5.25781L5.31654 8.34939L19.4883 30.518L19.5339 30.603L19.5861 30.518L27.3962 18.5081L27.4223 18.4754L27.3962 18.4427L23.4292 12.091H26.3262L28.8186 16.0682L28.8708 16.1532L28.923 16.0682L33.7513 8.34939L33.8101 8.25781H33.6991Z" fill="#FFCC29"/>
</svg>
